PathFileType	4	(X/Y/Z)	c:/Users/goper/Files/vsCode/490R/osim_files/C15/C15_SSWS_02.trc
DataRate	CameraRate	NumFrames	NumMarkers	Units                	OrigDataRate	OrigDataStartFrame	OrigNumFrames
250.00	250.00	6	36	mm	250.0	1785	2379
                Frame#	Time	LPSIS			LASIS			LTH1			LTH2			LTH3			LTH4			LLFE			LMFE			LSH1			LSH2			LSH3			LSH4			LLMAL			LMMAL			LCAL			LMTP5			LTOE			LMTP1			RPSIS			RASIS			RTH1			RTH2			RTH3			RTH4			RLFE			RMFE			RSH1			RSH2			RSH3			RSH4			RLMAL			RMMAL			RCAL			RMTP1			RTOE			RMTP5		
		X1	Y1	Z1	X2	Y2	Z2	X3	Y3	Z3	X4	Y4	Z4	X5	Y5	Z5	X6	Y6	Z6	X7	Y7	Z7	X8	Y8	Z8	X9	Y9	Z9	X10	Y10	Z10	X11	Y11	Z11	X12	Y12	Z12	X13	Y13	Z13	X14	Y14	Z14	X15	Y15	Z15	X16	Y16	Z16	X17	Y17	Z17	X18	Y18	Z18	X19	Y19	Z19	X20	Y20	Z20	X21	Y21	Z21	X22	Y22	Z22	X23	Y23	Z23	X24	Y24	Z24	X25	Y25	Z25	X26	Y26	Z26	X27	Y27	Z27	X28	Y28	Z28	X29	Y29	Z29	X30	Y30	Z30	X31	Y31	Z31	X32	Y32	Z32	X33	Y33	Z33	X34	Y34	Z34	X35	Y35	Z35	X36	Y36	Z36

1785	7.13600	-2600.03345	1031.27441	331.95288	-2764.54248	1006.16107	400.72726	-2666.27441	619.30658	450.79453	-2663.63086	574.41785	435.74612	-2717.95898	624.34650	444.33768	-2715.47461	579.41650	433.54556	-2670.02100	495.20621	412.42664	-2668.30103	483.99445	292.01462	-2593.52710	397.44751	427.75507	-2582.52051	352.47552	427.37796	-2652.82544	383.51230	425.77246	-2634.89453	338.42041	425.30222	-2550.82471	94.18597	357.87524	-2569.81519	120.63377	269.27338	-2484.98999	71.58138	313.89883	-2667.90771	45.66122	377.25897	-2724.95142	66.30866	314.07370	-2683.66992	40.96983	256.73026	0.00000	0.00000	0.00000	-2760.73389	1005.41571	151.26056	-2828.69604	660.42389	79.67758	0.00000	0.00000	0.00000	-2885.90137	684.06946	89.52625	-2900.52197	638.25299	92.46478	-2891.65186	535.08917	116.62202	-2896.84253	517.87463	233.98238	-2801.76294	442.46695	102.43347	-2796.66870	399.13260	98.58031	-2859.97754	423.26624	97.23658	-2846.86279	385.22369	92.20103	-2780.89429	132.36804	152.32603	-2827.58350	149.23788	232.76897	-2722.48511	116.77262	208.48216	-2923.56763	62.53154	214.69260	-2951.29272	79.41473	156.28035	-2877.27954	53.99322	106.61877
1786	7.14000	-2603.74756	1031.02417	331.64441	-2767.72583	1005.81219	400.49847	-2669.45117	619.60614	452.01074	-2665.51978	574.31311	435.60284	-2718.93408	623.65381	443.43439	-2717.38965	579.14258	433.51718	-2671.62402	495.05231	412.46848	-2670.02783	483.78897	292.01111	-2594.45483	397.48389	427.59677	-2583.49585	352.64508	427.24844	-2653.96948	383.48145	425.77582	-2635.86499	338.38614	425.26358	-2550.87329	94.34271	357.92114	-2570.06299	120.79929	269.19620	-2485.07886	71.80052	313.76740	-2667.90845	45.71608	377.25229	-2724.96924	66.26808	314.06580	-2683.64453	40.91341	256.70410	-2606.57520	1027.41943	211.26199	-2764.81470	1004.99054	151.29500	0.00000	0.00000	0.00000	0.00000	0.00000	0.00000	-2889.60791	683.33368	90.06690	-2904.11011	637.48920	93.22517	-2895.14917	534.41644	117.40580	-2900.20166	517.18494	234.61870	-2807.34814	439.48700	102.18812	-2803.52246	395.95898	98.33672	-2865.30127	421.02988	97.37929	-2853.62793	383.18033	91.99406	-2790.74585	126.65749	152.75116	-2841.14136	146.90074	232.28838	-2736.87207	111.57446	208.09189	-2939.39355	62.29974	213.84921	-2965.71606	79.69450	155.24278	-2892.87354	52.71709	105.79369
1787	7.14400	-2607.45068	1030.69873	331.27872	-2771.39136	1005.39056	400.52997	-2671.58032	619.50537	451.94470	-2667.48779	574.24951	435.59149	-2721.11938	623.42761	443.39850	-2719.36719	578.89166	433.46616	-2673.24927	494.94077	412.42752	-2671.70947	483.59137	292.02972	-2595.82300	397.64966	427.59134	-2584.59106	352.78271	427.16949	-2655.01660	383.37601	425.67191	-2636.82764	338.36093	425.20740	-2550.84766	94.63678	357.54950	-2570.27417	120.95419	269.07886	-2485.20557	72.05761	313.58823	-2667.95166	45.76221	377.21521	-2724.53711	66.26130	313.74060	-2683.59839	40.87281	256.68478	-2609.35254	1027.78845	211.46791	-2769.06934	1004.63763	151.28427	-2833.30933	655.28979	85.35342	0.00000	0.00000	0.00000	-2893.22583	682.48267	90.67755	-2907.62280	636.64459	93.92567	-2901.85693	534.98474	117.35909	-2903.54639	516.42908	235.12971	-2814.06665	436.30475	102.11081	-2810.32520	392.79813	98.04015	-2870.54761	418.83652	97.55071	-2860.40674	381.18320	91.79475	-2808.63525	125.07396	151.20857	-2854.63989	144.35083	231.78419	-2751.05249	106.58122	207.70514	-2954.30688	62.05564	212.84512	-2981.65820	80.87515	154.43430	-2908.74463	51.87732	104.93319
1788	7.14800	-2611.79639	1030.17822	330.77866	-2775.49780	1004.80267	400.91196	-2673.68530	619.43799	451.85550	-2669.45532	574.15094	435.52341	-2723.27319	623.43658	442.85590	-2721.38574	578.61359	433.42780	-2674.84399	494.71323	412.44299	-2673.43091	483.36945	292.03418	-2596.93896	397.70676	427.44934	-2585.62012	352.86520	427.07657	-2656.17041	383.31592	425.63535	-2637.79956	338.33286	425.12924	-2550.95410	94.89192	357.47366	-2570.47656	121.07153	268.99542	-2485.25977	72.26292	313.48160	-2667.94702	45.78651	377.23267	-2724.51953	66.22124	313.72388	-2683.63037	41.06468	256.82083	-2614.25977	1026.36108	210.41469	-2773.36401	1004.19818	151.34627	-2836.76855	654.33539	85.99385	-2857.66138	613.10883	94.52216	-2896.77100	681.51324	91.31187	-2911.05469	635.66681	94.74748	-2905.08936	534.11401	118.08817	-2906.78418	515.49298	235.70514	-2819.32666	433.34021	101.79416	-2816.98730	389.67935	97.77646	-2875.74170	416.67746	97.73222	-2867.09326	379.24075	91.65165	-2818.58960	119.84325	151.59268	-2867.50342	141.81403	230.82626	-2765.90356	101.90746	207.10413	-2970.70728	62.56100	212.13097	-2996.01099	81.53057	153.51730	-2924.36450	51.08369	104.12208
1789	7.15200	-2614.87598	1030.02747	330.63727	-2779.56030	1004.54175	400.89590	-2675.84863	619.33307	451.77649	-2671.36157	573.93634	435.37625	-2725.84937	623.12177	443.06122	-2723.31616	578.29437	433.39536	-2676.42285	494.49661	412.41693	-2675.14624	483.17123	292.03598	-2597.98462	397.73468	427.37137	-2586.65015	352.96024	426.97089	-2657.18384	383.18985	425.57007	-2639.10034	338.26358	425.32394	-2551.17090	95.02642	357.61682	-2570.60889	121.24758	269.03241	-2485.33252	72.41101	313.44128	-2667.92212	45.78364	377.23087	-2725.00439	66.12289	314.09729	-2683.67505	41.05622	256.81775	-2618.67188	1026.35889	210.19109	-2777.67847	1003.74707	151.30124	-2842.83228	656.86420	81.86568	-2860.93848	612.08362	95.21063	-2900.14990	680.42340	91.97695	-2914.33618	634.56317	95.54472	-2904.95898	531.81421	119.61172	-2909.76221	514.40796	236.24689	-2825.35742	430.37320	102.06041	-2823.99707	386.42261	97.90269	-2884.34351	418.98721	97.65303	-2873.78345	377.44476	91.52255	-2836.78467	118.83189	149.97314	-2881.67749	140.05701	230.73093	-2780.29175	97.39785	206.45366	-2986.34570	63.00535	211.30676	-3011.03052	82.75613	152.74687	-2940.07080	50.67134	103.36814
1790	7.15600	-2619.40063	1029.39844	330.05560	-2783.44824	1004.23969	400.84607	-2676.31689	618.63928	450.12564	-2673.31055	573.81226	435.32849	-2727.48730	622.69116	442.78754	-2725.33618	577.99927	433.35999	-2678.04004	494.28592	412.47894	-2676.86279	482.89258	292.05182	-2599.39233	397.92612	427.29050	-2587.68140	353.10327	426.90686	-2658.26440	383.03436	425.49313	-2639.76147	338.15329	425.07773	-2551.28564	95.25332	357.56451	-2570.98071	121.40678	268.85797	-2485.37671	72.54391	313.43420	-2667.90479	45.74677	377.26562	-2725.03149	66.06341	314.08826	-2683.63843	41.00482	256.80371	0.00000	0.00000	0.00000	-2781.91968	1003.20428	151.30652	-2843.46973	652.10803	87.38998	-2864.12012	610.97968	95.95503	-2903.53638	679.31567	92.61800	-2917.55933	633.35022	96.33202	-2908.05322	530.75305	120.25361	-2912.45483	513.07574	236.64532	-2830.63110	427.37280	102.04311	-2830.55859	383.35040	97.79303	-2889.99927	417.79211	97.71992	-2880.26099	375.61798	91.42596	-2846.66553	114.01151	150.38387	-2895.16675	138.26414	230.25803	-2794.54663	93.15324	205.97885	-3001.83887	63.74980	210.61847	-3026.70361	84.54411	152.18922	-2955.72192	50.54678	102.66344
